<svg width="15" height="15" viewBox="0 0 15 15" fill="none" xmlns="http://www.w3.org/2000/svg">
<path fill-rule="evenodd" clip-rule="evenodd" d="M7.34203 1.71699C7.6154 1.44362 8.05861 1.44362 8.33198 1.71699L13.62 7.00503C13.8934 7.2784 13.8934 7.72161 13.62 7.99498L8.33198 13.283C8.05861 13.5564 7.6154 13.5564 7.34203 13.283C7.06867 13.0097 7.06867 12.5664 7.34203 12.2931L12.1351 7.5L7.34203 2.70694C7.06867 2.43357 7.06867 1.99036 7.34203 1.71699Z" fill="currentColor"/>
<path fill-rule="evenodd" clip-rule="evenodd" d="M1.17505 7.5C1.17505 7.11341 1.48845 6.8 1.87505 6.8L13.125 6.80001C13.5116 6.80001 13.825 7.11341 13.825 7.50001C13.825 7.88661 13.5116 8.20001 13.125 8.20001L1.87505 8.2C1.48845 8.2 1.17505 7.8866 1.17505 7.5Z" fill="currentColor"/>
</svg>
