<svg width="262" height="35" viewBox="0 0 262 35" fill="none" xmlns="http://www.w3.org/2000/svg">
<path fill-rule="evenodd" clip-rule="evenodd" d="M23.2059 11.5882C25.3014 11.5882 27 9.88948 27 7.79408C27 5.69867 25.3014 4 23.2059 4C21.1105 4 19.4119 5.69867 19.4119 7.79408C19.4119 9.88948 21.1105 11.5882 23.2059 11.5882Z" fill="url(#paint0_linear_1_173)"/>
<path fill-rule="evenodd" clip-rule="evenodd" d="M23.2057 21.1171C25.3011 21.1171 26.9998 19.4185 26.9998 17.3231C26.9998 15.2278 25.3011 13.5292 23.2057 13.5292C21.1103 13.5292 19.4116 15.2278 19.4116 17.3231C19.4116 19.4185 21.1103 21.1171 23.2057 21.1171Z" fill="url(#paint1_linear_1_173)"/>
<path fill-rule="evenodd" clip-rule="evenodd" d="M23.2057 30.9996C25.3011 30.9996 26.9998 29.301 26.9998 27.2056C26.9998 25.1102 25.3011 23.4115 23.2057 23.4115C21.1103 23.4115 19.4116 25.1102 19.4116 27.2056C19.4116 29.301 21.1103 30.9996 23.2057 30.9996Z" fill="url(#paint2_linear_1_173)"/>
<path fill-rule="evenodd" clip-rule="evenodd" d="M13.3237 21.1172C15.4191 21.1172 17.1177 19.4186 17.1177 17.3233C17.1177 15.2279 15.4191 13.5293 13.3237 13.5293C11.2284 13.5293 9.52979 15.2279 9.52979 17.3233C9.52979 19.4186 11.2284 21.1172 13.3237 21.1172Z" fill="url(#paint3_linear_1_173)"/>
<path fill-rule="evenodd" clip-rule="evenodd" d="M13.3236 30.9996C15.419 30.9996 17.1176 29.301 17.1176 27.2056C17.1176 25.1102 15.419 23.4115 13.3236 23.4115C11.2283 23.4115 9.52966 25.1102 9.52966 27.2056C9.52966 29.301 11.2283 30.9996 13.3236 30.9996Z" fill="url(#paint4_linear_1_173)"/>
<path fill-rule="evenodd" clip-rule="evenodd" d="M3.79395 30.9996C5.88936 30.9996 7.58803 29.301 7.58803 27.2056C7.58803 25.1102 5.88936 23.4115 3.79395 23.4115C1.69854 23.4115 -0.00012207 25.1102 -0.00012207 27.2056C-0.00012207 29.301 1.69854 30.9996 3.79395 30.9996Z" fill="url(#paint5_linear_1_173)"/>
<mask id="path-7-outside-1_1_173" maskUnits="userSpaceOnUse" x="38" y="4.51587" width="156" height="26" fill="black">
<rect fill="white" x="38" y="4.51587" width="156" height="26"/>
<path d="M69.752 6.95587L63.16 29.1959H59.032L54.36 12.3639L49.4 29.1959L45.304 29.2279L39 6.95587H42.872L47.48 25.0679L52.472 6.95587H56.568L61.208 24.9719L65.848 6.95587H69.752Z"/>
<path d="M82.0687 11.2759C83.7541 11.2759 85.2794 11.6492 86.6447 12.3959C88.0101 13.1425 89.0874 14.2092 89.8767 15.5959C90.6661 16.9825 91.0607 18.5719 91.0607 20.3639C91.0607 22.1559 90.6554 23.7452 89.8447 25.1319C89.0341 26.5185 87.9248 27.5959 86.5168 28.3639C85.1301 29.1105 83.5941 29.4839 81.9087 29.4839C80.2447 29.4839 78.7407 29.1105 77.3967 28.3639C76.0527 27.5959 74.9967 26.5292 74.2287 25.1639C73.4607 23.7772 73.0767 22.1772 73.0767 20.3639C73.0767 18.5719 73.4714 16.9825 74.2607 15.5959C75.0501 14.2092 76.1274 13.1425 77.4927 12.3959C78.8581 11.6492 80.3834 11.2759 82.0687 11.2759ZM82.0047 14.3479C81.0661 14.3479 80.2021 14.5825 79.4128 15.0519C78.6234 15.4999 77.9834 16.1825 77.4927 17.0999C77.0234 17.9959 76.7887 19.0839 76.7887 20.3639C76.7887 21.6439 77.0127 22.7425 77.4607 23.6599C77.9301 24.5772 78.5487 25.2705 79.3167 25.7399C80.1061 26.1879 80.9701 26.4119 81.9087 26.4119C82.8474 26.4119 83.7221 26.1772 84.5327 25.7079C85.3647 25.2385 86.0367 24.5559 86.5487 23.6599C87.0607 22.7425 87.3167 21.6439 87.3167 20.3639C87.3167 19.0839 87.0714 17.9959 86.5807 17.0999C86.0901 16.1825 85.4394 15.4999 84.6287 15.0519C83.8181 14.5825 82.9434 14.3479 82.0047 14.3479Z"/>
<path d="M103.975 11.2759C105.66 11.2759 107.186 11.6492 108.551 12.3959C109.916 13.1425 110.994 14.2092 111.783 15.5959C112.572 16.9825 112.967 18.5719 112.967 20.3639C112.967 22.1559 112.562 23.7452 111.751 25.1319C110.94 26.5185 109.831 27.5959 108.423 28.3639C107.036 29.1105 105.5 29.4839 103.815 29.4839C102.151 29.4839 100.647 29.1105 99.303 28.3639C97.959 27.5959 96.903 26.5292 96.135 25.1639C95.367 23.7772 94.983 22.1772 94.983 20.3639C94.983 18.5719 95.3777 16.9825 96.167 15.5959C96.9563 14.2092 98.0337 13.1425 99.399 12.3959C100.764 11.6492 102.29 11.2759 103.975 11.2759ZM103.911 14.3479C102.972 14.3479 102.108 14.5825 101.319 15.0519C100.53 15.4999 99.8897 16.1825 99.399 17.0999C98.9297 17.9959 98.695 19.0839 98.695 20.3639C98.695 21.6439 98.919 22.7425 99.367 23.6599C99.8363 24.5772 100.455 25.2705 101.223 25.7399C102.012 26.1879 102.876 26.4119 103.815 26.4119C104.754 26.4119 105.628 26.1772 106.439 25.7079C107.271 25.2385 107.943 24.5559 108.455 23.6599C108.967 22.7425 109.223 21.6439 109.223 20.3639C109.223 19.0839 108.978 17.9959 108.487 17.0999C107.996 16.1825 107.346 15.4999 106.535 15.0519C105.724 14.5825 104.85 14.3479 103.911 14.3479Z"/>
<path d="M139.737 11.2759C141.06 11.2759 142.244 11.5639 143.289 12.1399C144.335 12.7159 145.156 13.5692 145.753 14.6999C146.372 15.8305 146.681 17.1959 146.681 18.7959V29.1959H143.033V19.3399C143.033 17.7612 142.639 16.5559 141.849 15.7239C141.06 14.8705 139.983 14.4439 138.617 14.4439C137.252 14.4439 136.175 14.8705 135.385 15.7239C134.596 16.5559 134.201 17.7612 134.201 19.3399V29.1959H130.585V19.3399C130.585 17.7612 130.191 16.5559 129.401 15.7239C128.612 14.8705 127.535 14.4439 126.169 14.4439C124.804 14.4439 123.716 14.8705 122.905 15.7239C122.116 16.5559 121.721 17.7612 121.721 19.3399V29.1959H118.073V11.5639H121.721V14.3479C122.297 13.3452 123.065 12.5879 124.025 12.0759C125.007 11.5425 126.116 11.2759 127.353 11.2759C128.719 11.2759 129.935 11.5959 131.001 12.2359C132.068 12.8759 132.879 13.8039 133.433 15.0199C134.052 13.8465 134.905 12.9292 135.993 12.2679C137.103 11.6065 138.351 11.2759 139.737 11.2759Z"/>
<path d="M162.615 11.2759C164.151 11.2759 165.549 11.6599 166.807 12.4279C168.087 13.1745 169.09 14.2305 169.815 15.5959C170.541 16.9612 170.903 18.5292 170.903 20.2999C170.903 22.0705 170.541 23.6599 169.815 25.0679C169.09 26.4545 168.087 27.5425 166.807 28.3319C165.549 29.0999 164.151 29.4839 162.615 29.4839C161.229 29.4839 160.013 29.1639 158.967 28.5239C157.922 27.8625 157.09 26.9879 156.471 25.8999V29.1959H152.823V5.51587H156.471V14.6999C157.069 13.6759 157.89 12.8545 158.935 12.2359C160.002 11.5959 161.229 11.2759 162.615 11.2759ZM161.815 14.4439C160.898 14.4439 160.023 14.6785 159.191 15.1479C158.381 15.6172 157.719 16.2999 157.207 17.1959C156.717 18.0919 156.471 19.1479 156.471 20.3639C156.471 21.5799 156.717 22.6465 157.207 23.5639C157.719 24.4599 158.381 25.1425 159.191 25.6119C160.023 26.0812 160.898 26.3159 161.815 26.3159C162.754 26.3159 163.629 26.0812 164.439 25.6119C165.271 25.1212 165.933 24.4172 166.423 23.4999C166.935 22.5825 167.191 21.5159 167.191 20.2999C167.191 19.0839 166.935 18.0385 166.423 17.1639C165.933 16.2679 165.271 15.5959 164.439 15.1479C163.629 14.6785 162.754 14.4439 161.815 14.4439Z"/>
<path d="M183.819 11.2759C185.504 11.2759 187.029 11.6492 188.395 12.3959C189.76 13.1425 190.837 14.2092 191.627 15.5959C192.416 16.9825 192.811 18.5719 192.811 20.3639C192.811 22.1559 192.405 23.7452 191.595 25.1319C190.784 26.5185 189.675 27.5959 188.267 28.3639C186.88 29.1105 185.344 29.4839 183.659 29.4839C181.995 29.4839 180.491 29.1105 179.147 28.3639C177.803 27.5959 176.747 26.5292 175.979 25.1639C175.211 23.7772 174.827 22.1772 174.827 20.3639C174.827 18.5719 175.221 16.9825 176.011 15.5959C176.8 14.2092 177.877 13.1425 179.243 12.3959C180.608 11.6492 182.133 11.2759 183.819 11.2759ZM183.755 14.3479C182.816 14.3479 181.952 14.5825 181.163 15.0519C180.373 15.4999 179.733 16.1825 179.243 17.0999C178.773 17.9959 178.539 19.0839 178.539 20.3639C178.539 21.6439 178.763 22.7425 179.211 23.6599C179.68 24.5772 180.299 25.2705 181.067 25.7399C181.856 26.1879 182.72 26.4119 183.659 26.4119C184.597 26.4119 185.472 26.1772 186.283 25.7079C187.115 25.2385 187.787 24.5559 188.299 23.6599C188.811 22.7425 189.067 21.6439 189.067 20.3639C189.067 19.0839 188.821 17.9959 188.331 17.0999C187.84 16.1825 187.189 15.4999 186.379 15.0519C185.568 14.5825 184.693 14.3479 183.755 14.3479Z"/>
</mask>
<path d="M69.752 6.95587L63.16 29.1959H59.032L54.36 12.3639L49.4 29.1959L45.304 29.2279L39 6.95587H42.872L47.48 25.0679L52.472 6.95587H56.568L61.208 24.9719L65.848 6.95587H69.752Z" fill="white"/>
<path d="M82.0687 11.2759C83.7541 11.2759 85.2794 11.6492 86.6447 12.3959C88.0101 13.1425 89.0874 14.2092 89.8767 15.5959C90.6661 16.9825 91.0607 18.5719 91.0607 20.3639C91.0607 22.1559 90.6554 23.7452 89.8447 25.1319C89.0341 26.5185 87.9248 27.5959 86.5168 28.3639C85.1301 29.1105 83.5941 29.4839 81.9087 29.4839C80.2447 29.4839 78.7407 29.1105 77.3967 28.3639C76.0527 27.5959 74.9967 26.5292 74.2287 25.1639C73.4607 23.7772 73.0767 22.1772 73.0767 20.3639C73.0767 18.5719 73.4714 16.9825 74.2607 15.5959C75.0501 14.2092 76.1274 13.1425 77.4927 12.3959C78.8581 11.6492 80.3834 11.2759 82.0687 11.2759ZM82.0047 14.3479C81.0661 14.3479 80.2021 14.5825 79.4128 15.0519C78.6234 15.4999 77.9834 16.1825 77.4927 17.0999C77.0234 17.9959 76.7887 19.0839 76.7887 20.3639C76.7887 21.6439 77.0127 22.7425 77.4607 23.6599C77.9301 24.5772 78.5487 25.2705 79.3167 25.7399C80.1061 26.1879 80.9701 26.4119 81.9087 26.4119C82.8474 26.4119 83.7221 26.1772 84.5327 25.7079C85.3647 25.2385 86.0367 24.5559 86.5487 23.6599C87.0607 22.7425 87.3167 21.6439 87.3167 20.3639C87.3167 19.0839 87.0714 17.9959 86.5807 17.0999C86.0901 16.1825 85.4394 15.4999 84.6287 15.0519C83.8181 14.5825 82.9434 14.3479 82.0047 14.3479Z" fill="white"/>
<path d="M103.975 11.2759C105.66 11.2759 107.186 11.6492 108.551 12.3959C109.916 13.1425 110.994 14.2092 111.783 15.5959C112.572 16.9825 112.967 18.5719 112.967 20.3639C112.967 22.1559 112.562 23.7452 111.751 25.1319C110.94 26.5185 109.831 27.5959 108.423 28.3639C107.036 29.1105 105.5 29.4839 103.815 29.4839C102.151 29.4839 100.647 29.1105 99.303 28.3639C97.959 27.5959 96.903 26.5292 96.135 25.1639C95.367 23.7772 94.983 22.1772 94.983 20.3639C94.983 18.5719 95.3777 16.9825 96.167 15.5959C96.9563 14.2092 98.0337 13.1425 99.399 12.3959C100.764 11.6492 102.29 11.2759 103.975 11.2759ZM103.911 14.3479C102.972 14.3479 102.108 14.5825 101.319 15.0519C100.53 15.4999 99.8897 16.1825 99.399 17.0999C98.9297 17.9959 98.695 19.0839 98.695 20.3639C98.695 21.6439 98.919 22.7425 99.367 23.6599C99.8363 24.5772 100.455 25.2705 101.223 25.7399C102.012 26.1879 102.876 26.4119 103.815 26.4119C104.754 26.4119 105.628 26.1772 106.439 25.7079C107.271 25.2385 107.943 24.5559 108.455 23.6599C108.967 22.7425 109.223 21.6439 109.223 20.3639C109.223 19.0839 108.978 17.9959 108.487 17.0999C107.996 16.1825 107.346 15.4999 106.535 15.0519C105.724 14.5825 104.85 14.3479 103.911 14.3479Z" fill="white"/>
<path d="M139.737 11.2759C141.06 11.2759 142.244 11.5639 143.289 12.1399C144.335 12.7159 145.156 13.5692 145.753 14.6999C146.372 15.8305 146.681 17.1959 146.681 18.7959V29.1959H143.033V19.3399C143.033 17.7612 142.639 16.5559 141.849 15.7239C141.06 14.8705 139.983 14.4439 138.617 14.4439C137.252 14.4439 136.175 14.8705 135.385 15.7239C134.596 16.5559 134.201 17.7612 134.201 19.3399V29.1959H130.585V19.3399C130.585 17.7612 130.191 16.5559 129.401 15.7239C128.612 14.8705 127.535 14.4439 126.169 14.4439C124.804 14.4439 123.716 14.8705 122.905 15.7239C122.116 16.5559 121.721 17.7612 121.721 19.3399V29.1959H118.073V11.5639H121.721V14.3479C122.297 13.3452 123.065 12.5879 124.025 12.0759C125.007 11.5425 126.116 11.2759 127.353 11.2759C128.719 11.2759 129.935 11.5959 131.001 12.2359C132.068 12.8759 132.879 13.8039 133.433 15.0199C134.052 13.8465 134.905 12.9292 135.993 12.2679C137.103 11.6065 138.351 11.2759 139.737 11.2759Z" fill="white"/>
<path d="M162.615 11.2759C164.151 11.2759 165.549 11.6599 166.807 12.4279C168.087 13.1745 169.09 14.2305 169.815 15.5959C170.541 16.9612 170.903 18.5292 170.903 20.2999C170.903 22.0705 170.541 23.6599 169.815 25.0679C169.09 26.4545 168.087 27.5425 166.807 28.3319C165.549 29.0999 164.151 29.4839 162.615 29.4839C161.229 29.4839 160.013 29.1639 158.967 28.5239C157.922 27.8625 157.09 26.9879 156.471 25.8999V29.1959H152.823V5.51587H156.471V14.6999C157.069 13.6759 157.89 12.8545 158.935 12.2359C160.002 11.5959 161.229 11.2759 162.615 11.2759ZM161.815 14.4439C160.898 14.4439 160.023 14.6785 159.191 15.1479C158.381 15.6172 157.719 16.2999 157.207 17.1959C156.717 18.0919 156.471 19.1479 156.471 20.3639C156.471 21.5799 156.717 22.6465 157.207 23.5639C157.719 24.4599 158.381 25.1425 159.191 25.6119C160.023 26.0812 160.898 26.3159 161.815 26.3159C162.754 26.3159 163.629 26.0812 164.439 25.6119C165.271 25.1212 165.933 24.4172 166.423 23.4999C166.935 22.5825 167.191 21.5159 167.191 20.2999C167.191 19.0839 166.935 18.0385 166.423 17.1639C165.933 16.2679 165.271 15.5959 164.439 15.1479C163.629 14.6785 162.754 14.4439 161.815 14.4439Z" fill="white"/>
<path d="M183.819 11.2759C185.504 11.2759 187.029 11.6492 188.395 12.3959C189.76 13.1425 190.837 14.2092 191.627 15.5959C192.416 16.9825 192.811 18.5719 192.811 20.3639C192.811 22.1559 192.405 23.7452 191.595 25.1319C190.784 26.5185 189.675 27.5959 188.267 28.3639C186.88 29.1105 185.344 29.4839 183.659 29.4839C181.995 29.4839 180.491 29.1105 179.147 28.3639C177.803 27.5959 176.747 26.5292 175.979 25.1639C175.211 23.7772 174.827 22.1772 174.827 20.3639C174.827 18.5719 175.221 16.9825 176.011 15.5959C176.8 14.2092 177.877 13.1425 179.243 12.3959C180.608 11.6492 182.133 11.2759 183.819 11.2759ZM183.755 14.3479C182.816 14.3479 181.952 14.5825 181.163 15.0519C180.373 15.4999 179.733 16.1825 179.243 17.0999C178.773 17.9959 178.539 19.0839 178.539 20.3639C178.539 21.6439 178.763 22.7425 179.211 23.6599C179.68 24.5772 180.299 25.2705 181.067 25.7399C181.856 26.1879 182.72 26.4119 183.659 26.4119C184.597 26.4119 185.472 26.1772 186.283 25.7079C187.115 25.2385 187.787 24.5559 188.299 23.6599C188.811 22.7425 189.067 21.6439 189.067 20.3639C189.067 19.0839 188.821 17.9959 188.331 17.0999C187.84 16.1825 187.189 15.4999 186.379 15.0519C185.568 14.5825 184.693 14.3479 183.755 14.3479Z" fill="white"/>
<path d="M69.752 6.95587L63.16 29.1959H59.032L54.36 12.3639L49.4 29.1959L45.304 29.2279L39 6.95587H42.872L47.48 25.0679L52.472 6.95587H56.568L61.208 24.9719L65.848 6.95587H69.752Z" stroke="white" mask="url(#path-7-outside-1_1_173)"/>
<path d="M82.0687 11.2759C83.7541 11.2759 85.2794 11.6492 86.6447 12.3959C88.0101 13.1425 89.0874 14.2092 89.8767 15.5959C90.6661 16.9825 91.0607 18.5719 91.0607 20.3639C91.0607 22.1559 90.6554 23.7452 89.8447 25.1319C89.0341 26.5185 87.9248 27.5959 86.5168 28.3639C85.1301 29.1105 83.5941 29.4839 81.9087 29.4839C80.2447 29.4839 78.7407 29.1105 77.3967 28.3639C76.0527 27.5959 74.9967 26.5292 74.2287 25.1639C73.4607 23.7772 73.0767 22.1772 73.0767 20.3639C73.0767 18.5719 73.4714 16.9825 74.2607 15.5959C75.0501 14.2092 76.1274 13.1425 77.4927 12.3959C78.8581 11.6492 80.3834 11.2759 82.0687 11.2759ZM82.0047 14.3479C81.0661 14.3479 80.2021 14.5825 79.4128 15.0519C78.6234 15.4999 77.9834 16.1825 77.4927 17.0999C77.0234 17.9959 76.7887 19.0839 76.7887 20.3639C76.7887 21.6439 77.0127 22.7425 77.4607 23.6599C77.9301 24.5772 78.5487 25.2705 79.3167 25.7399C80.1061 26.1879 80.9701 26.4119 81.9087 26.4119C82.8474 26.4119 83.7221 26.1772 84.5327 25.7079C85.3647 25.2385 86.0367 24.5559 86.5487 23.6599C87.0607 22.7425 87.3167 21.6439 87.3167 20.3639C87.3167 19.0839 87.0714 17.9959 86.5807 17.0999C86.0901 16.1825 85.4394 15.4999 84.6287 15.0519C83.8181 14.5825 82.9434 14.3479 82.0047 14.3479Z" stroke="white" mask="url(#path-7-outside-1_1_173)"/>
<path d="M103.975 11.2759C105.66 11.2759 107.186 11.6492 108.551 12.3959C109.916 13.1425 110.994 14.2092 111.783 15.5959C112.572 16.9825 112.967 18.5719 112.967 20.3639C112.967 22.1559 112.562 23.7452 111.751 25.1319C110.94 26.5185 109.831 27.5959 108.423 28.3639C107.036 29.1105 105.5 29.4839 103.815 29.4839C102.151 29.4839 100.647 29.1105 99.303 28.3639C97.959 27.5959 96.903 26.5292 96.135 25.1639C95.367 23.7772 94.983 22.1772 94.983 20.3639C94.983 18.5719 95.3777 16.9825 96.167 15.5959C96.9563 14.2092 98.0337 13.1425 99.399 12.3959C100.764 11.6492 102.29 11.2759 103.975 11.2759ZM103.911 14.3479C102.972 14.3479 102.108 14.5825 101.319 15.0519C100.53 15.4999 99.8897 16.1825 99.399 17.0999C98.9297 17.9959 98.695 19.0839 98.695 20.3639C98.695 21.6439 98.919 22.7425 99.367 23.6599C99.8363 24.5772 100.455 25.2705 101.223 25.7399C102.012 26.1879 102.876 26.4119 103.815 26.4119C104.754 26.4119 105.628 26.1772 106.439 25.7079C107.271 25.2385 107.943 24.5559 108.455 23.6599C108.967 22.7425 109.223 21.6439 109.223 20.3639C109.223 19.0839 108.978 17.9959 108.487 17.0999C107.996 16.1825 107.346 15.4999 106.535 15.0519C105.724 14.5825 104.85 14.3479 103.911 14.3479Z" stroke="white" mask="url(#path-7-outside-1_1_173)"/>
<path d="M139.737 11.2759C141.06 11.2759 142.244 11.5639 143.289 12.1399C144.335 12.7159 145.156 13.5692 145.753 14.6999C146.372 15.8305 146.681 17.1959 146.681 18.7959V29.1959H143.033V19.3399C143.033 17.7612 142.639 16.5559 141.849 15.7239C141.06 14.8705 139.983 14.4439 138.617 14.4439C137.252 14.4439 136.175 14.8705 135.385 15.7239C134.596 16.5559 134.201 17.7612 134.201 19.3399V29.1959H130.585V19.3399C130.585 17.7612 130.191 16.5559 129.401 15.7239C128.612 14.8705 127.535 14.4439 126.169 14.4439C124.804 14.4439 123.716 14.8705 122.905 15.7239C122.116 16.5559 121.721 17.7612 121.721 19.3399V29.1959H118.073V11.5639H121.721V14.3479C122.297 13.3452 123.065 12.5879 124.025 12.0759C125.007 11.5425 126.116 11.2759 127.353 11.2759C128.719 11.2759 129.935 11.5959 131.001 12.2359C132.068 12.8759 132.879 13.8039 133.433 15.0199C134.052 13.8465 134.905 12.9292 135.993 12.2679C137.103 11.6065 138.351 11.2759 139.737 11.2759Z" stroke="white" mask="url(#path-7-outside-1_1_173)"/>
<path d="M162.615 11.2759C164.151 11.2759 165.549 11.6599 166.807 12.4279C168.087 13.1745 169.09 14.2305 169.815 15.5959C170.541 16.9612 170.903 18.5292 170.903 20.2999C170.903 22.0705 170.541 23.6599 169.815 25.0679C169.09 26.4545 168.087 27.5425 166.807 28.3319C165.549 29.0999 164.151 29.4839 162.615 29.4839C161.229 29.4839 160.013 29.1639 158.967 28.5239C157.922 27.8625 157.09 26.9879 156.471 25.8999V29.1959H152.823V5.51587H156.471V14.6999C157.069 13.6759 157.89 12.8545 158.935 12.2359C160.002 11.5959 161.229 11.2759 162.615 11.2759ZM161.815 14.4439C160.898 14.4439 160.023 14.6785 159.191 15.1479C158.381 15.6172 157.719 16.2999 157.207 17.1959C156.717 18.0919 156.471 19.1479 156.471 20.3639C156.471 21.5799 156.717 22.6465 157.207 23.5639C157.719 24.4599 158.381 25.1425 159.191 25.6119C160.023 26.0812 160.898 26.3159 161.815 26.3159C162.754 26.3159 163.629 26.0812 164.439 25.6119C165.271 25.1212 165.933 24.4172 166.423 23.4999C166.935 22.5825 167.191 21.5159 167.191 20.2999C167.191 19.0839 166.935 18.0385 166.423 17.1639C165.933 16.2679 165.271 15.5959 164.439 15.1479C163.629 14.6785 162.754 14.4439 161.815 14.4439Z" stroke="white" mask="url(#path-7-outside-1_1_173)"/>
<path d="M183.819 11.2759C185.504 11.2759 187.029 11.6492 188.395 12.3959C189.76 13.1425 190.837 14.2092 191.627 15.5959C192.416 16.9825 192.811 18.5719 192.811 20.3639C192.811 22.1559 192.405 23.7452 191.595 25.1319C190.784 26.5185 189.675 27.5959 188.267 28.3639C186.88 29.1105 185.344 29.4839 183.659 29.4839C181.995 29.4839 180.491 29.1105 179.147 28.3639C177.803 27.5959 176.747 26.5292 175.979 25.1639C175.211 23.7772 174.827 22.1772 174.827 20.3639C174.827 18.5719 175.221 16.9825 176.011 15.5959C176.8 14.2092 177.877 13.1425 179.243 12.3959C180.608 11.6492 182.133 11.2759 183.819 11.2759ZM183.755 14.3479C182.816 14.3479 181.952 14.5825 181.163 15.0519C180.373 15.4999 179.733 16.1825 179.243 17.0999C178.773 17.9959 178.539 19.0839 178.539 20.3639C178.539 21.6439 178.763 22.7425 179.211 23.6599C179.68 24.5772 180.299 25.2705 181.067 25.7399C181.856 26.1879 182.72 26.4119 183.659 26.4119C184.597 26.4119 185.472 26.1772 186.283 25.7079C187.115 25.2385 187.787 24.5559 188.299 23.6599C188.811 22.7425 189.067 21.6439 189.067 20.3639C189.067 19.0839 188.821 17.9959 188.331 17.0999C187.84 16.1825 187.189 15.4999 186.379 15.0519C185.568 14.5825 184.693 14.3479 183.755 14.3479Z" stroke="white" mask="url(#path-7-outside-1_1_173)"/>
<defs>
<linearGradient id="paint0_linear_1_173" x1="19.4119" y1="4.61375" x2="28.1889" y2="6.78743" gradientUnits="userSpaceOnUse">
<stop offset="0.197174" stop-color="#9B51E0"/>
<stop offset="1" stop-color="#3081ED" stop-opacity="0.8"/>
</linearGradient>
<linearGradient id="paint1_linear_1_173" x1="19.4116" y1="14.1429" x2="28.1887" y2="16.3166" gradientUnits="userSpaceOnUse">
<stop offset="0.197174" stop-color="#9B51E0"/>
<stop offset="1" stop-color="#3081ED" stop-opacity="0.8"/>
</linearGradient>
<linearGradient id="paint2_linear_1_173" x1="19.4116" y1="24.0252" x2="28.1887" y2="26.1989" gradientUnits="userSpaceOnUse">
<stop offset="0.197174" stop-color="#9B51E0"/>
<stop offset="1" stop-color="#3081ED" stop-opacity="0.8"/>
</linearGradient>
<linearGradient id="paint3_linear_1_173" x1="9.52979" y1="14.143" x2="18.3066" y2="16.3166" gradientUnits="userSpaceOnUse">
<stop offset="0.197174" stop-color="#9B51E0"/>
<stop offset="1" stop-color="#3081ED" stop-opacity="0.8"/>
</linearGradient>
<linearGradient id="paint4_linear_1_173" x1="9.52966" y1="24.0252" x2="18.3065" y2="26.1988" gradientUnits="userSpaceOnUse">
<stop offset="0.197174" stop-color="#9B51E0"/>
<stop offset="1" stop-color="#3081ED" stop-opacity="0.8"/>
</linearGradient>
<linearGradient id="paint5_linear_1_173" x1="-0.000122044" y1="24.0252" x2="8.77695" y2="26.1989" gradientUnits="userSpaceOnUse">
<stop offset="0.197174" stop-color="#9B51E0"/>
<stop offset="1" stop-color="#3081ED" stop-opacity="0.8"/>
</linearGradient>
</defs>
</svg>
