<svg width="207" height="34" viewBox="0 0 207 34" fill="none" xmlns="http://www.w3.org/2000/svg">
<path fill-rule="evenodd" clip-rule="evenodd" d="M23.2059 11.5882C25.3014 11.5882 27 9.88948 27 7.79408C27 5.69867 25.3014 4 23.2059 4C21.1105 4 19.4119 5.69867 19.4119 7.79408C19.4119 9.88948 21.1105 11.5882 23.2059 11.5882Z" fill="white"/>
<path fill-rule="evenodd" clip-rule="evenodd" d="M23.2057 21.1171C25.3011 21.1171 26.9998 19.4185 26.9998 17.3232C26.9998 15.2278 25.3011 13.5292 23.2057 13.5292C21.1103 13.5292 19.4116 15.2278 19.4116 17.3232C19.4116 19.4185 21.1103 21.1171 23.2057 21.1171Z" fill="white"/>
<path fill-rule="evenodd" clip-rule="evenodd" d="M23.2057 30.9996C25.3011 30.9996 26.9998 29.3009 26.9998 27.2055C26.9998 25.1101 25.3011 23.4114 23.2057 23.4114C21.1103 23.4114 19.4116 25.1101 19.4116 27.2055C19.4116 29.3009 21.1103 30.9996 23.2057 30.9996Z" fill="white"/>
<path fill-rule="evenodd" clip-rule="evenodd" d="M13.3237 21.1172C15.4191 21.1172 17.1177 19.4186 17.1177 17.3232C17.1177 15.2279 15.4191 13.5293 13.3237 13.5293C11.2284 13.5293 9.52979 15.2279 9.52979 17.3232C9.52979 19.4186 11.2284 21.1172 13.3237 21.1172Z" fill="white"/>
<path fill-rule="evenodd" clip-rule="evenodd" d="M13.3236 30.9996C15.419 30.9996 17.1176 29.301 17.1176 27.2056C17.1176 25.1102 15.419 23.4115 13.3236 23.4115C11.2283 23.4115 9.52966 25.1102 9.52966 27.2056C9.52966 29.301 11.2283 30.9996 13.3236 30.9996Z" fill="white"/>
<path fill-rule="evenodd" clip-rule="evenodd" d="M3.79395 30.9996C5.88936 30.9996 7.58803 29.3009 7.58803 27.2055C7.58803 25.1101 5.88936 23.4114 3.79395 23.4114C1.69854 23.4114 -0.00012207 25.1101 -0.00012207 27.2055C-0.00012207 29.3009 1.69854 30.9996 3.79395 30.9996Z" fill="white"/>
<mask id="path-7-outside-1_1_268" maskUnits="userSpaceOnUse" x="38" y="4.51581" width="156" height="26" fill="black">
<rect fill="white" x="38" y="4.51581" width="156" height="26"/>
<path d="M69.752 6.95581L63.16 29.1958H59.032L54.36 12.3638L49.4 29.1958L45.304 29.2278L39 6.95581H42.872L47.48 25.0678L52.472 6.95581H56.568L61.208 24.9718L65.848 6.95581H69.752Z"/>
<path d="M82.0687 11.2758C83.7541 11.2758 85.2794 11.6491 86.6447 12.3958C88.0101 13.1425 89.0874 14.2091 89.8767 15.5958C90.6661 16.9825 91.0607 18.5718 91.0607 20.3638C91.0607 22.1558 90.6554 23.7451 89.8447 25.1318C89.0341 26.5185 87.9248 27.5958 86.5168 28.3638C85.1301 29.1105 83.5941 29.4838 81.9087 29.4838C80.2447 29.4838 78.7407 29.1105 77.3967 28.3638C76.0527 27.5958 74.9967 26.5291 74.2287 25.1638C73.4607 23.7771 73.0767 22.1771 73.0767 20.3638C73.0767 18.5718 73.4714 16.9825 74.2607 15.5958C75.0501 14.2091 76.1274 13.1425 77.4927 12.3958C78.8581 11.6491 80.3834 11.2758 82.0687 11.2758ZM82.0047 14.3478C81.0661 14.3478 80.2021 14.5825 79.4128 15.0518C78.6234 15.4998 77.9834 16.1825 77.4927 17.0998C77.0234 17.9958 76.7887 19.0838 76.7887 20.3638C76.7887 21.6438 77.0127 22.7425 77.4607 23.6598C77.9301 24.5771 78.5487 25.2705 79.3167 25.7398C80.1061 26.1878 80.9701 26.4118 81.9087 26.4118C82.8474 26.4118 83.7221 26.1771 84.5327 25.7078C85.3647 25.2385 86.0367 24.5558 86.5487 23.6598C87.0607 22.7425 87.3167 21.6438 87.3167 20.3638C87.3167 19.0838 87.0714 17.9958 86.5807 17.0998C86.0901 16.1825 85.4394 15.4998 84.6287 15.0518C83.8181 14.5825 82.9434 14.3478 82.0047 14.3478Z"/>
<path d="M103.975 11.2758C105.66 11.2758 107.186 11.6491 108.551 12.3958C109.916 13.1425 110.994 14.2091 111.783 15.5958C112.572 16.9825 112.967 18.5718 112.967 20.3638C112.967 22.1558 112.562 23.7451 111.751 25.1318C110.94 26.5185 109.831 27.5958 108.423 28.3638C107.036 29.1105 105.5 29.4838 103.815 29.4838C102.151 29.4838 100.647 29.1105 99.303 28.3638C97.959 27.5958 96.903 26.5291 96.135 25.1638C95.367 23.7771 94.983 22.1771 94.983 20.3638C94.983 18.5718 95.3777 16.9825 96.167 15.5958C96.9563 14.2091 98.0337 13.1425 99.399 12.3958C100.764 11.6491 102.29 11.2758 103.975 11.2758ZM103.911 14.3478C102.972 14.3478 102.108 14.5825 101.319 15.0518C100.53 15.4998 99.8897 16.1825 99.399 17.0998C98.9297 17.9958 98.695 19.0838 98.695 20.3638C98.695 21.6438 98.919 22.7425 99.367 23.6598C99.8363 24.5771 100.455 25.2705 101.223 25.7398C102.012 26.1878 102.876 26.4118 103.815 26.4118C104.754 26.4118 105.628 26.1771 106.439 25.7078C107.271 25.2385 107.943 24.5558 108.455 23.6598C108.967 22.7425 109.223 21.6438 109.223 20.3638C109.223 19.0838 108.978 17.9958 108.487 17.0998C107.996 16.1825 107.346 15.4998 106.535 15.0518C105.724 14.5825 104.85 14.3478 103.911 14.3478Z"/>
<path d="M139.737 11.2758C141.06 11.2758 142.244 11.5638 143.289 12.1398C144.335 12.7158 145.156 13.5691 145.753 14.6998C146.372 15.8305 146.681 17.1958 146.681 18.7958V29.1958H143.033V19.3398C143.033 17.7611 142.639 16.5558 141.849 15.7238C141.06 14.8705 139.983 14.4438 138.617 14.4438C137.252 14.4438 136.175 14.8705 135.385 15.7238C134.596 16.5558 134.201 17.7611 134.201 19.3398V29.1958H130.585V19.3398C130.585 17.7611 130.191 16.5558 129.401 15.7238C128.612 14.8705 127.535 14.4438 126.169 14.4438C124.804 14.4438 123.716 14.8705 122.905 15.7238C122.116 16.5558 121.721 17.7611 121.721 19.3398V29.1958H118.073V11.5638H121.721V14.3478C122.297 13.3451 123.065 12.5878 124.025 12.0758C125.007 11.5425 126.116 11.2758 127.353 11.2758C128.719 11.2758 129.935 11.5958 131.001 12.2358C132.068 12.8758 132.879 13.8038 133.433 15.0198C134.052 13.8465 134.905 12.9291 135.993 12.2678C137.103 11.6065 138.351 11.2758 139.737 11.2758Z"/>
<path d="M162.615 11.2758C164.151 11.2758 165.549 11.6598 166.807 12.4278C168.087 13.1745 169.09 14.2305 169.815 15.5958C170.541 16.9611 170.903 18.5291 170.903 20.2998C170.903 22.0705 170.541 23.6598 169.815 25.0678C169.09 26.4545 168.087 27.5425 166.807 28.3318C165.549 29.0998 164.151 29.4838 162.615 29.4838C161.229 29.4838 160.013 29.1638 158.967 28.5238C157.922 27.8625 157.09 26.9878 156.471 25.8998V29.1958H152.823V5.51581H156.471V14.6998C157.069 13.6758 157.89 12.8545 158.935 12.2358C160.002 11.5958 161.229 11.2758 162.615 11.2758ZM161.815 14.4438C160.898 14.4438 160.023 14.6785 159.191 15.1478C158.381 15.6171 157.719 16.2998 157.207 17.1958C156.717 18.0918 156.471 19.1478 156.471 20.3638C156.471 21.5798 156.717 22.6465 157.207 23.5638C157.719 24.4598 158.381 25.1425 159.191 25.6118C160.023 26.0811 160.898 26.3158 161.815 26.3158C162.754 26.3158 163.629 26.0811 164.439 25.6118C165.271 25.1211 165.933 24.4171 166.423 23.4998C166.935 22.5825 167.191 21.5158 167.191 20.2998C167.191 19.0838 166.935 18.0385 166.423 17.1638C165.933 16.2678 165.271 15.5958 164.439 15.1478C163.629 14.6785 162.754 14.4438 161.815 14.4438Z"/>
<path d="M183.819 11.2758C185.504 11.2758 187.029 11.6491 188.395 12.3958C189.76 13.1425 190.837 14.2091 191.627 15.5958C192.416 16.9825 192.811 18.5718 192.811 20.3638C192.811 22.1558 192.405 23.7451 191.595 25.1318C190.784 26.5185 189.675 27.5958 188.267 28.3638C186.88 29.1105 185.344 29.4838 183.659 29.4838C181.995 29.4838 180.491 29.1105 179.147 28.3638C177.803 27.5958 176.747 26.5291 175.979 25.1638C175.211 23.7771 174.827 22.1771 174.827 20.3638C174.827 18.5718 175.221 16.9825 176.011 15.5958C176.8 14.2091 177.877 13.1425 179.243 12.3958C180.608 11.6491 182.133 11.2758 183.819 11.2758ZM183.755 14.3478C182.816 14.3478 181.952 14.5825 181.163 15.0518C180.373 15.4998 179.733 16.1825 179.243 17.0998C178.773 17.9958 178.539 19.0838 178.539 20.3638C178.539 21.6438 178.763 22.7425 179.211 23.6598C179.68 24.5771 180.299 25.2705 181.067 25.7398C181.856 26.1878 182.72 26.4118 183.659 26.4118C184.597 26.4118 185.472 26.1771 186.283 25.7078C187.115 25.2385 187.787 24.5558 188.299 23.6598C188.811 22.7425 189.067 21.6438 189.067 20.3638C189.067 19.0838 188.821 17.9958 188.331 17.0998C187.84 16.1825 187.189 15.4998 186.379 15.0518C185.568 14.5825 184.693 14.3478 183.755 14.3478Z"/>
</mask>
<path d="M69.752 6.95581L63.16 29.1958H59.032L54.36 12.3638L49.4 29.1958L45.304 29.2278L39 6.95581H42.872L47.48 25.0678L52.472 6.95581H56.568L61.208 24.9718L65.848 6.95581H69.752Z" fill="white"/>
<path d="M82.0687 11.2758C83.7541 11.2758 85.2794 11.6491 86.6447 12.3958C88.0101 13.1425 89.0874 14.2091 89.8767 15.5958C90.6661 16.9825 91.0607 18.5718 91.0607 20.3638C91.0607 22.1558 90.6554 23.7451 89.8447 25.1318C89.0341 26.5185 87.9248 27.5958 86.5168 28.3638C85.1301 29.1105 83.5941 29.4838 81.9087 29.4838C80.2447 29.4838 78.7407 29.1105 77.3967 28.3638C76.0527 27.5958 74.9967 26.5291 74.2287 25.1638C73.4607 23.7771 73.0767 22.1771 73.0767 20.3638C73.0767 18.5718 73.4714 16.9825 74.2607 15.5958C75.0501 14.2091 76.1274 13.1425 77.4927 12.3958C78.8581 11.6491 80.3834 11.2758 82.0687 11.2758ZM82.0047 14.3478C81.0661 14.3478 80.2021 14.5825 79.4128 15.0518C78.6234 15.4998 77.9834 16.1825 77.4927 17.0998C77.0234 17.9958 76.7887 19.0838 76.7887 20.3638C76.7887 21.6438 77.0127 22.7425 77.4607 23.6598C77.9301 24.5771 78.5487 25.2705 79.3167 25.7398C80.1061 26.1878 80.9701 26.4118 81.9087 26.4118C82.8474 26.4118 83.7221 26.1771 84.5327 25.7078C85.3647 25.2385 86.0367 24.5558 86.5487 23.6598C87.0607 22.7425 87.3167 21.6438 87.3167 20.3638C87.3167 19.0838 87.0714 17.9958 86.5807 17.0998C86.0901 16.1825 85.4394 15.4998 84.6287 15.0518C83.8181 14.5825 82.9434 14.3478 82.0047 14.3478Z" fill="white"/>
<path d="M103.975 11.2758C105.66 11.2758 107.186 11.6491 108.551 12.3958C109.916 13.1425 110.994 14.2091 111.783 15.5958C112.572 16.9825 112.967 18.5718 112.967 20.3638C112.967 22.1558 112.562 23.7451 111.751 25.1318C110.94 26.5185 109.831 27.5958 108.423 28.3638C107.036 29.1105 105.5 29.4838 103.815 29.4838C102.151 29.4838 100.647 29.1105 99.303 28.3638C97.959 27.5958 96.903 26.5291 96.135 25.1638C95.367 23.7771 94.983 22.1771 94.983 20.3638C94.983 18.5718 95.3777 16.9825 96.167 15.5958C96.9563 14.2091 98.0337 13.1425 99.399 12.3958C100.764 11.6491 102.29 11.2758 103.975 11.2758ZM103.911 14.3478C102.972 14.3478 102.108 14.5825 101.319 15.0518C100.53 15.4998 99.8897 16.1825 99.399 17.0998C98.9297 17.9958 98.695 19.0838 98.695 20.3638C98.695 21.6438 98.919 22.7425 99.367 23.6598C99.8363 24.5771 100.455 25.2705 101.223 25.7398C102.012 26.1878 102.876 26.4118 103.815 26.4118C104.754 26.4118 105.628 26.1771 106.439 25.7078C107.271 25.2385 107.943 24.5558 108.455 23.6598C108.967 22.7425 109.223 21.6438 109.223 20.3638C109.223 19.0838 108.978 17.9958 108.487 17.0998C107.996 16.1825 107.346 15.4998 106.535 15.0518C105.724 14.5825 104.85 14.3478 103.911 14.3478Z" fill="white"/>
<path d="M139.737 11.2758C141.06 11.2758 142.244 11.5638 143.289 12.1398C144.335 12.7158 145.156 13.5691 145.753 14.6998C146.372 15.8305 146.681 17.1958 146.681 18.7958V29.1958H143.033V19.3398C143.033 17.7611 142.639 16.5558 141.849 15.7238C141.06 14.8705 139.983 14.4438 138.617 14.4438C137.252 14.4438 136.175 14.8705 135.385 15.7238C134.596 16.5558 134.201 17.7611 134.201 19.3398V29.1958H130.585V19.3398C130.585 17.7611 130.191 16.5558 129.401 15.7238C128.612 14.8705 127.535 14.4438 126.169 14.4438C124.804 14.4438 123.716 14.8705 122.905 15.7238C122.116 16.5558 121.721 17.7611 121.721 19.3398V29.1958H118.073V11.5638H121.721V14.3478C122.297 13.3451 123.065 12.5878 124.025 12.0758C125.007 11.5425 126.116 11.2758 127.353 11.2758C128.719 11.2758 129.935 11.5958 131.001 12.2358C132.068 12.8758 132.879 13.8038 133.433 15.0198C134.052 13.8465 134.905 12.9291 135.993 12.2678C137.103 11.6065 138.351 11.2758 139.737 11.2758Z" fill="white"/>
<path d="M162.615 11.2758C164.151 11.2758 165.549 11.6598 166.807 12.4278C168.087 13.1745 169.09 14.2305 169.815 15.5958C170.541 16.9611 170.903 18.5291 170.903 20.2998C170.903 22.0705 170.541 23.6598 169.815 25.0678C169.09 26.4545 168.087 27.5425 166.807 28.3318C165.549 29.0998 164.151 29.4838 162.615 29.4838C161.229 29.4838 160.013 29.1638 158.967 28.5238C157.922 27.8625 157.09 26.9878 156.471 25.8998V29.1958H152.823V5.51581H156.471V14.6998C157.069 13.6758 157.89 12.8545 158.935 12.2358C160.002 11.5958 161.229 11.2758 162.615 11.2758ZM161.815 14.4438C160.898 14.4438 160.023 14.6785 159.191 15.1478C158.381 15.6171 157.719 16.2998 157.207 17.1958C156.717 18.0918 156.471 19.1478 156.471 20.3638C156.471 21.5798 156.717 22.6465 157.207 23.5638C157.719 24.4598 158.381 25.1425 159.191 25.6118C160.023 26.0811 160.898 26.3158 161.815 26.3158C162.754 26.3158 163.629 26.0811 164.439 25.6118C165.271 25.1211 165.933 24.4171 166.423 23.4998C166.935 22.5825 167.191 21.5158 167.191 20.2998C167.191 19.0838 166.935 18.0385 166.423 17.1638C165.933 16.2678 165.271 15.5958 164.439 15.1478C163.629 14.6785 162.754 14.4438 161.815 14.4438Z" fill="white"/>
<path d="M183.819 11.2758C185.504 11.2758 187.029 11.6491 188.395 12.3958C189.76 13.1425 190.837 14.2091 191.627 15.5958C192.416 16.9825 192.811 18.5718 192.811 20.3638C192.811 22.1558 192.405 23.7451 191.595 25.1318C190.784 26.5185 189.675 27.5958 188.267 28.3638C186.88 29.1105 185.344 29.4838 183.659 29.4838C181.995 29.4838 180.491 29.1105 179.147 28.3638C177.803 27.5958 176.747 26.5291 175.979 25.1638C175.211 23.7771 174.827 22.1771 174.827 20.3638C174.827 18.5718 175.221 16.9825 176.011 15.5958C176.8 14.2091 177.877 13.1425 179.243 12.3958C180.608 11.6491 182.133 11.2758 183.819 11.2758ZM183.755 14.3478C182.816 14.3478 181.952 14.5825 181.163 15.0518C180.373 15.4998 179.733 16.1825 179.243 17.0998C178.773 17.9958 178.539 19.0838 178.539 20.3638C178.539 21.6438 178.763 22.7425 179.211 23.6598C179.68 24.5771 180.299 25.2705 181.067 25.7398C181.856 26.1878 182.72 26.4118 183.659 26.4118C184.597 26.4118 185.472 26.1771 186.283 25.7078C187.115 25.2385 187.787 24.5558 188.299 23.6598C188.811 22.7425 189.067 21.6438 189.067 20.3638C189.067 19.0838 188.821 17.9958 188.331 17.0998C187.84 16.1825 187.189 15.4998 186.379 15.0518C185.568 14.5825 184.693 14.3478 183.755 14.3478Z" fill="white"/>
<path d="M69.752 6.95581L63.16 29.1958H59.032L54.36 12.3638L49.4 29.1958L45.304 29.2278L39 6.95581H42.872L47.48 25.0678L52.472 6.95581H56.568L61.208 24.9718L65.848 6.95581H69.752Z" stroke="white" mask="url(#path-7-outside-1_1_268)"/>
<path d="M82.0687 11.2758C83.7541 11.2758 85.2794 11.6491 86.6447 12.3958C88.0101 13.1425 89.0874 14.2091 89.8767 15.5958C90.6661 16.9825 91.0607 18.5718 91.0607 20.3638C91.0607 22.1558 90.6554 23.7451 89.8447 25.1318C89.0341 26.5185 87.9248 27.5958 86.5168 28.3638C85.1301 29.1105 83.5941 29.4838 81.9087 29.4838C80.2447 29.4838 78.7407 29.1105 77.3967 28.3638C76.0527 27.5958 74.9967 26.5291 74.2287 25.1638C73.4607 23.7771 73.0767 22.1771 73.0767 20.3638C73.0767 18.5718 73.4714 16.9825 74.2607 15.5958C75.0501 14.2091 76.1274 13.1425 77.4927 12.3958C78.8581 11.6491 80.3834 11.2758 82.0687 11.2758ZM82.0047 14.3478C81.0661 14.3478 80.2021 14.5825 79.4128 15.0518C78.6234 15.4998 77.9834 16.1825 77.4927 17.0998C77.0234 17.9958 76.7887 19.0838 76.7887 20.3638C76.7887 21.6438 77.0127 22.7425 77.4607 23.6598C77.9301 24.5771 78.5487 25.2705 79.3167 25.7398C80.1061 26.1878 80.9701 26.4118 81.9087 26.4118C82.8474 26.4118 83.7221 26.1771 84.5327 25.7078C85.3647 25.2385 86.0367 24.5558 86.5487 23.6598C87.0607 22.7425 87.3167 21.6438 87.3167 20.3638C87.3167 19.0838 87.0714 17.9958 86.5807 17.0998C86.0901 16.1825 85.4394 15.4998 84.6287 15.0518C83.8181 14.5825 82.9434 14.3478 82.0047 14.3478Z" stroke="white" mask="url(#path-7-outside-1_1_268)"/>
<path d="M103.975 11.2758C105.66 11.2758 107.186 11.6491 108.551 12.3958C109.916 13.1425 110.994 14.2091 111.783 15.5958C112.572 16.9825 112.967 18.5718 112.967 20.3638C112.967 22.1558 112.562 23.7451 111.751 25.1318C110.94 26.5185 109.831 27.5958 108.423 28.3638C107.036 29.1105 105.5 29.4838 103.815 29.4838C102.151 29.4838 100.647 29.1105 99.303 28.3638C97.959 27.5958 96.903 26.5291 96.135 25.1638C95.367 23.7771 94.983 22.1771 94.983 20.3638C94.983 18.5718 95.3777 16.9825 96.167 15.5958C96.9563 14.2091 98.0337 13.1425 99.399 12.3958C100.764 11.6491 102.29 11.2758 103.975 11.2758ZM103.911 14.3478C102.972 14.3478 102.108 14.5825 101.319 15.0518C100.53 15.4998 99.8897 16.1825 99.399 17.0998C98.9297 17.9958 98.695 19.0838 98.695 20.3638C98.695 21.6438 98.919 22.7425 99.367 23.6598C99.8363 24.5771 100.455 25.2705 101.223 25.7398C102.012 26.1878 102.876 26.4118 103.815 26.4118C104.754 26.4118 105.628 26.1771 106.439 25.7078C107.271 25.2385 107.943 24.5558 108.455 23.6598C108.967 22.7425 109.223 21.6438 109.223 20.3638C109.223 19.0838 108.978 17.9958 108.487 17.0998C107.996 16.1825 107.346 15.4998 106.535 15.0518C105.724 14.5825 104.85 14.3478 103.911 14.3478Z" stroke="white" mask="url(#path-7-outside-1_1_268)"/>
<path d="M139.737 11.2758C141.06 11.2758 142.244 11.5638 143.289 12.1398C144.335 12.7158 145.156 13.5691 145.753 14.6998C146.372 15.8305 146.681 17.1958 146.681 18.7958V29.1958H143.033V19.3398C143.033 17.7611 142.639 16.5558 141.849 15.7238C141.06 14.8705 139.983 14.4438 138.617 14.4438C137.252 14.4438 136.175 14.8705 135.385 15.7238C134.596 16.5558 134.201 17.7611 134.201 19.3398V29.1958H130.585V19.3398C130.585 17.7611 130.191 16.5558 129.401 15.7238C128.612 14.8705 127.535 14.4438 126.169 14.4438C124.804 14.4438 123.716 14.8705 122.905 15.7238C122.116 16.5558 121.721 17.7611 121.721 19.3398V29.1958H118.073V11.5638H121.721V14.3478C122.297 13.3451 123.065 12.5878 124.025 12.0758C125.007 11.5425 126.116 11.2758 127.353 11.2758C128.719 11.2758 129.935 11.5958 131.001 12.2358C132.068 12.8758 132.879 13.8038 133.433 15.0198C134.052 13.8465 134.905 12.9291 135.993 12.2678C137.103 11.6065 138.351 11.2758 139.737 11.2758Z" stroke="white" mask="url(#path-7-outside-1_1_268)"/>
<path d="M162.615 11.2758C164.151 11.2758 165.549 11.6598 166.807 12.4278C168.087 13.1745 169.09 14.2305 169.815 15.5958C170.541 16.9611 170.903 18.5291 170.903 20.2998C170.903 22.0705 170.541 23.6598 169.815 25.0678C169.09 26.4545 168.087 27.5425 166.807 28.3318C165.549 29.0998 164.151 29.4838 162.615 29.4838C161.229 29.4838 160.013 29.1638 158.967 28.5238C157.922 27.8625 157.09 26.9878 156.471 25.8998V29.1958H152.823V5.51581H156.471V14.6998C157.069 13.6758 157.89 12.8545 158.935 12.2358C160.002 11.5958 161.229 11.2758 162.615 11.2758ZM161.815 14.4438C160.898 14.4438 160.023 14.6785 159.191 15.1478C158.381 15.6171 157.719 16.2998 157.207 17.1958C156.717 18.0918 156.471 19.1478 156.471 20.3638C156.471 21.5798 156.717 22.6465 157.207 23.5638C157.719 24.4598 158.381 25.1425 159.191 25.6118C160.023 26.0811 160.898 26.3158 161.815 26.3158C162.754 26.3158 163.629 26.0811 164.439 25.6118C165.271 25.1211 165.933 24.4171 166.423 23.4998C166.935 22.5825 167.191 21.5158 167.191 20.2998C167.191 19.0838 166.935 18.0385 166.423 17.1638C165.933 16.2678 165.271 15.5958 164.439 15.1478C163.629 14.6785 162.754 14.4438 161.815 14.4438Z" stroke="white" mask="url(#path-7-outside-1_1_268)"/>
<path d="M183.819 11.2758C185.504 11.2758 187.029 11.6491 188.395 12.3958C189.76 13.1425 190.837 14.2091 191.627 15.5958C192.416 16.9825 192.811 18.5718 192.811 20.3638C192.811 22.1558 192.405 23.7451 191.595 25.1318C190.784 26.5185 189.675 27.5958 188.267 28.3638C186.88 29.1105 185.344 29.4838 183.659 29.4838C181.995 29.4838 180.491 29.1105 179.147 28.3638C177.803 27.5958 176.747 26.5291 175.979 25.1638C175.211 23.7771 174.827 22.1771 174.827 20.3638C174.827 18.5718 175.221 16.9825 176.011 15.5958C176.8 14.2091 177.877 13.1425 179.243 12.3958C180.608 11.6491 182.133 11.2758 183.819 11.2758ZM183.755 14.3478C182.816 14.3478 181.952 14.5825 181.163 15.0518C180.373 15.4998 179.733 16.1825 179.243 17.0998C178.773 17.9958 178.539 19.0838 178.539 20.3638C178.539 21.6438 178.763 22.7425 179.211 23.6598C179.68 24.5771 180.299 25.2705 181.067 25.7398C181.856 26.1878 182.72 26.4118 183.659 26.4118C184.597 26.4118 185.472 26.1771 186.283 25.7078C187.115 25.2385 187.787 24.5558 188.299 23.6598C188.811 22.7425 189.067 21.6438 189.067 20.3638C189.067 19.0838 188.821 17.9958 188.331 17.0998C187.84 16.1825 187.189 15.4998 186.379 15.0518C185.568 14.5825 184.693 14.3478 183.755 14.3478Z" stroke="white" mask="url(#path-7-outside-1_1_268)"/>
</svg>
